<mxfile host="app.diagrams.net" agent="Mozilla/5.0 (Macintosh; Intel Mac OS X 10_15_7) AppleWebKit/537.36 (KHTML, like Gecko) Chrome/136.0.0.0 Safari/537.36" version="27.0.9">
  <diagram name="Hybrid Cloud Architecture" id="GBeFrpYypLn6LdEvK6EH">
    <mxGraphModel dx="946" dy="610" grid="1" gridSize="10" guides="1" tooltips="1" connect="1" arrows="1" fold="1" page="1" pageScale="1" pageWidth="1169" pageHeight="827" math="0" shadow="0">
      <root>
        <mxCell id="0" />
        <mxCell id="1" parent="0" />
        <mxCell id="RiEXOu_eR1GD0VXTEFJd-1" value="AWS Cloud" style="swimlane" vertex="1" parent="1">
          <mxGeometry x="20" y="20" width="500" height="400" as="geometry" />
        </mxCell>
        <mxCell id="RiEXOu_eR1GD0VXTEFJd-2" value="VPC" style="swimlane" vertex="1" parent="RiEXOu_eR1GD0VXTEFJd-1">
          <mxGeometry x="10" y="30" width="480" height="360" as="geometry" />
        </mxCell>
        <mxCell id="RiEXOu_eR1GD0VXTEFJd-3" value="Public Subnet" style="swimlane" vertex="1" parent="RiEXOu_eR1GD0VXTEFJd-2">
          <mxGeometry x="10" y="30" width="220" height="140" as="geometry" />
        </mxCell>
        <mxCell id="RiEXOu_eR1GD0VXTEFJd-4" value="ALB" style="ellipse;whiteSpace=wrap;html=1;" vertex="1" parent="RiEXOu_eR1GD0VXTEFJd-3">
          <mxGeometry x="40" y="50" width="140" height="40" as="geometry" />
        </mxCell>
        <mxCell id="RiEXOu_eR1GD0VXTEFJd-5" value="Private Subnet" style="swimlane" vertex="1" parent="RiEXOu_eR1GD0VXTEFJd-2">
          <mxGeometry x="250" y="30" width="220" height="200" as="geometry" />
        </mxCell>
        <mxCell id="RiEXOu_eR1GD0VXTEFJd-6" value="EC2 App Server 1" style="rectangle;whiteSpace=wrap;html=1;" vertex="1" parent="RiEXOu_eR1GD0VXTEFJd-5">
          <mxGeometry x="30" y="20" width="160" height="40" as="geometry" />
        </mxCell>
        <mxCell id="RiEXOu_eR1GD0VXTEFJd-7" value="EC2 App Server 2" style="rectangle;whiteSpace=wrap;html=1;" vertex="1" parent="RiEXOu_eR1GD0VXTEFJd-5">
          <mxGeometry x="30" y="80" width="160" height="40" as="geometry" />
        </mxCell>
        <mxCell id="RiEXOu_eR1GD0VXTEFJd-8" value="VPN Gateway" style="hexagon;whiteSpace=wrap;html=1;" vertex="1" parent="RiEXOu_eR1GD0VXTEFJd-2">
          <mxGeometry x="160" y="280" width="160" height="40" as="geometry" />
        </mxCell>
        <mxCell id="RiEXOu_eR1GD0VXTEFJd-9" value="On-Premises" style="swimlane" vertex="1" parent="1">
          <mxGeometry x="20" y="450" width="500" height="160" as="geometry" />
        </mxCell>
        <mxCell id="RiEXOu_eR1GD0VXTEFJd-10" value="Database Cluster" style="cylinder;whiteSpace=wrap;html=1;" vertex="1" parent="RiEXOu_eR1GD0VXTEFJd-9">
          <mxGeometry x="60" y="60" width="120" height="40" as="geometry" />
        </mxCell>
        <mxCell id="RiEXOu_eR1GD0VXTEFJd-11" value="Customer Gateway" style="hexagon;whiteSpace=wrap;html=1;" vertex="1" parent="RiEXOu_eR1GD0VXTEFJd-9">
          <mxGeometry x="240" y="60" width="160" height="40" as="geometry" />
        </mxCell>
        <mxCell id="RiEXOu_eR1GD0VXTEFJd-12" style="endArrow=block;html=1;" edge="1" parent="1" source="RiEXOu_eR1GD0VXTEFJd-4" target="RiEXOu_eR1GD0VXTEFJd-6">
          <mxGeometry relative="1" as="geometry" />
        </mxCell>
        <mxCell id="RiEXOu_eR1GD0VXTEFJd-13" style="endArrow=block;html=1;" edge="1" parent="1" source="RiEXOu_eR1GD0VXTEFJd-4" target="RiEXOu_eR1GD0VXTEFJd-7">
          <mxGeometry relative="1" as="geometry" />
        </mxCell>
        <mxCell id="RiEXOu_eR1GD0VXTEFJd-14" style="endArrow=block;html=1;" edge="1" parent="1" source="RiEXOu_eR1GD0VXTEFJd-8" target="RiEXOu_eR1GD0VXTEFJd-11">
          <mxGeometry relative="1" as="geometry" />
        </mxCell>
        <mxCell id="RiEXOu_eR1GD0VXTEFJd-15" style="endArrow=block;html=1;" edge="1" parent="1" source="RiEXOu_eR1GD0VXTEFJd-11" target="RiEXOu_eR1GD0VXTEFJd-10">
          <mxGeometry relative="1" as="geometry" />
        </mxCell>
        <mxCell id="RiEXOu_eR1GD0VXTEFJd-16" value="AWS Cloud" style="swimlane;fillColor=#DAE8FC;strokeColor=#6C8EBF" vertex="1" parent="1">
          <mxGeometry x="20" y="20" width="500" height="400" as="geometry" />
        </mxCell>
        <mxCell id="RiEXOu_eR1GD0VXTEFJd-17" value="VPC" style="swimlane;fillColor=#DAE8FC;strokeColor=#6C8EBF" vertex="1" parent="RiEXOu_eR1GD0VXTEFJd-16">
          <mxGeometry x="10" y="30" width="480" height="360" as="geometry" />
        </mxCell>
        <mxCell id="RiEXOu_eR1GD0VXTEFJd-18" value="Public Subnet" style="swimlane;fillColor=#DAE8FC;strokeColor=#6C8EBF" vertex="1" parent="RiEXOu_eR1GD0VXTEFJd-17">
          <mxGeometry x="10" y="30" width="220" height="140" as="geometry" />
        </mxCell>
        <mxCell id="RiEXOu_eR1GD0VXTEFJd-19" value="ALB" style="ellipse;whiteSpace=wrap;html=1;fillColor=#FFE6CC;strokeColor=#D79B00" vertex="1" parent="RiEXOu_eR1GD0VXTEFJd-18">
          <mxGeometry x="40" y="50" width="140" height="40" as="geometry" />
        </mxCell>
        <mxCell id="RiEXOu_eR1GD0VXTEFJd-20" value="Private Subnet" style="swimlane;fillColor=#DAE8FC;strokeColor=#6C8EBF" vertex="1" parent="RiEXOu_eR1GD0VXTEFJd-17">
          <mxGeometry x="250" y="30" width="220" height="200" as="geometry" />
        </mxCell>
        <mxCell id="RiEXOu_eR1GD0VXTEFJd-21" value="EC2 App Server 1" style="rectangle;whiteSpace=wrap;html=1;fillColor=#D5E8D4;strokeColor=#82B366" vertex="1" parent="RiEXOu_eR1GD0VXTEFJd-20">
          <mxGeometry x="30" y="20" width="160" height="40" as="geometry" />
        </mxCell>
        <mxCell id="RiEXOu_eR1GD0VXTEFJd-22" value="EC2 App Server 2" style="rectangle;whiteSpace=wrap;html=1;fillColor=#D5E8D4;strokeColor=#82B366" vertex="1" parent="RiEXOu_eR1GD0VXTEFJd-20">
          <mxGeometry x="30" y="80" width="160" height="40" as="geometry" />
        </mxCell>
        <mxCell id="RiEXOu_eR1GD0VXTEFJd-23" value="VPN Gateway" style="hexagon;whiteSpace=wrap;html=1;fillColor=#F8CECC;strokeColor=#B85450" vertex="1" parent="RiEXOu_eR1GD0VXTEFJd-17">
          <mxGeometry x="160" y="280" width="160" height="40" as="geometry" />
        </mxCell>
        <mxCell id="RiEXOu_eR1GD0VXTEFJd-24" value="On-Premises" style="swimlane;fillColor=#DAE8FC;strokeColor=#6C8EBF" vertex="1" parent="1">
          <mxGeometry x="20" y="450" width="500" height="160" as="geometry" />
        </mxCell>
        <mxCell id="RiEXOu_eR1GD0VXTEFJd-25" value="Database Cluster" style="cylinder;whiteSpace=wrap;html=1;fillColor=#FFF2CC;strokeColor=#D6B656" vertex="1" parent="RiEXOu_eR1GD0VXTEFJd-24">
          <mxGeometry x="60" y="60" width="120" height="40" as="geometry" />
        </mxCell>
        <mxCell id="RiEXOu_eR1GD0VXTEFJd-26" value="Customer Gateway" style="hexagon;whiteSpace=wrap;html=1;fillColor=#F8CECC;strokeColor=#B85450" vertex="1" parent="RiEXOu_eR1GD0VXTEFJd-24">
          <mxGeometry x="240" y="60" width="160" height="40" as="geometry" />
        </mxCell>
        <mxCell id="RiEXOu_eR1GD0VXTEFJd-27" style="endArrow=block;html=1;" edge="1" parent="1" source="RiEXOu_eR1GD0VXTEFJd-19" target="RiEXOu_eR1GD0VXTEFJd-21">
          <mxGeometry relative="1" as="geometry" />
        </mxCell>
        <mxCell id="RiEXOu_eR1GD0VXTEFJd-28" style="endArrow=block;html=1;" edge="1" parent="1" source="RiEXOu_eR1GD0VXTEFJd-19" target="RiEXOu_eR1GD0VXTEFJd-22">
          <mxGeometry relative="1" as="geometry" />
        </mxCell>
        <mxCell id="RiEXOu_eR1GD0VXTEFJd-29" style="endArrow=block;html=1;" edge="1" parent="1" source="RiEXOu_eR1GD0VXTEFJd-23" target="RiEXOu_eR1GD0VXTEFJd-26">
          <mxGeometry relative="1" as="geometry" />
        </mxCell>
        <mxCell id="RiEXOu_eR1GD0VXTEFJd-30" style="endArrow=block;html=1;" edge="1" parent="1" source="RiEXOu_eR1GD0VXTEFJd-26" target="RiEXOu_eR1GD0VXTEFJd-25">
          <mxGeometry relative="1" as="geometry" />
        </mxCell>
      </root>
    </mxGraphModel>
  </diagram>
</mxfile>
